Coordinates
version=1
nRows=12
nColumns=23
inDegrees=yes

Units are S.I. units (second, meters, Newtons, ...)
If the header above contains a line with 'inDegrees', this indicates whether rotational values are in degrees (yes) or radians (no).

endheader
time	pelvis_tilt	pelvis_list	pelvis_rotation	pelvis_tx	pelvis_ty	pelvis_tz	hip_flexion_r	hip_adduction_r	hip_rotation_r	knee_angle_r	knee_angle_r_beta	ankle_angle_r	subtalar_angle_r	mtp_angle_r	hip_flexion_l	hip_adduction_l	hip_rotation_l	knee_angle_l	knee_angle_l_beta	ankle_angle_l	subtalar_angle_l	mtp_angle_l
     15.00000000	     -6.78844858	      2.01341296	      6.45582875	      2.15725540	      0.96071792	      1.03936592	     47.50207563	     -5.74012566	     -3.34655191	     93.77347406	      1.63665587	     -1.11695196	    -18.62571843	      0.00000000	     -1.47975386	      3.17770920	     -5.67002464	     31.91667593	      0.55705108	     16.37615837	      6.11631566	      0.00000000
     15.00666667	     -7.03869008	      1.28993601	      5.76531376	      2.15909987	      0.96620146	      1.04060539	     47.84922193	     -4.42531415	     -3.67537129	     90.05264247	      1.57171511	     -0.41122792	    -18.90471184	      0.00000000	     -3.55059770	      2.38924227	     -6.17922560	     29.43220576	      0.51368890	     13.02534056	      5.98518280	      0.00000000
     15.01333333	     -7.34940948	      0.58103700	      5.04068582	      2.16101205	      0.97146873	      1.04196013	     48.12470484	     -3.10885424	     -3.97460465	     86.15749291	      1.50373193	      0.25656476	    -19.04632572	      0.00000000	     -5.47985072	      1.64754692	     -6.80528243	     27.03288884	      0.47181292	      9.45786062	      5.85402619	      0.00000000
     15.02000000	     -7.62276032	     -0.18667255	      4.41223753	      2.16298550	      0.97666527	      1.04320214	     48.17666021	     -1.84045453	     -4.40750609	     82.05445547	      1.43212041	      0.83644126	    -19.02493662	      0.00000000	     -7.32363383	      0.85319524	     -7.40656085	     24.80451399	      0.43292044	      5.73223196	      5.62267578	      0.00000000
     15.02666667	     -8.00538014	     -0.85185680	      3.74886560	      2.16485815	      0.98143576	      1.04458902	     48.25343924	     -0.63114954	     -4.72096856	     77.83029195	      1.35839485	      1.33249503	    -18.86116321	      0.00000000	     -8.90784446	      0.17725788	     -8.14473055	     22.81879617	      0.39826312	      1.95905037	      5.42930856	      0.00000000
     15.03333333	     -8.42832014	     -1.46219820	      3.12479449	      2.16663778	      0.98589212	      1.04596095	     48.25288258	      0.49813858	     -5.00889078	     73.46180394	      1.28215035	      1.75868501	    -18.50882603	      0.00000000	    -10.26673034	     -0.46472674	     -8.99912157	     21.15946525	      0.36930234	     -1.77049938	      5.28693002	      0.00000000
     15.04000000	     -8.86510338	     -2.01560829	      2.58133338	      2.16828125	      0.99006211	      1.04728954	     48.15138284	      1.50891351	     -5.31811906	     68.96315106	      1.20363405	      2.16114421	    -17.83750326	      0.00000000	    -11.38934353	     -1.08885752	     -9.91102585	     19.90534635	      0.34741383	     -5.41252927	      5.06433064	      0.00000000
     15.04666667	     -9.30857810	     -2.49549686	      2.09164790	      2.16979933	      0.99393857	      1.04857953	     47.94499866	      2.43066519	     -5.58897466	     64.33530581	      1.12286291	      2.50402613	    -16.92185785	      0.00000000	    -12.27613421	     -1.70008589	    -10.97664610	     19.10828412	      0.33350247	     -8.82916373	      4.89365782	      0.00000000
     15.05333333	     -9.70205175	     -2.91718837	      1.72197670	      2.17116966	      0.99760820	      1.04973367	     47.57489612	      3.19718163	     -5.93606691	     59.59618460	      1.04014964	      2.84405163	    -15.62071085	      0.00000000	    -12.96820599	     -2.32617514	    -12.07848354	     18.79719568	      0.32807295	    -11.98924012	      4.58107613	      0.00000000
     15.06000000	    -10.07965764	     -3.29018267	      1.42710789	      2.17239533	      1.00098694	      1.05080035	     47.08920791	      3.88274947	     -6.29717276	     54.76181909	      0.95577405	      3.23292764	    -13.90800234	      0.00000000	    -13.43650884	     -2.97507923	    -13.22745967	     18.99557245	      0.33153528	    -14.73500952	      4.06798854	      0.00000000
     15.06666667	    -10.36257066	     -3.59529002	      1.25328918	      2.17350558	      1.00412616	      1.05174973	     46.41241060	      4.42325819	     -6.74328295	     49.87675220	      0.87051355	      3.62620839	    -11.80338720	      0.00000000	    -13.78862393	     -3.63088168	    -14.29999157	     19.66188145	      0.34316457	    -17.08467361	      3.30895922	      0.00000000
     15.07333333	    -10.53715930	     -3.88483634	      1.14548576	      2.17450235	      1.00703448	      1.05254491	     45.54003683	      4.92807419	     -7.23109931	     44.95417668	      0.78459840	      4.10534348	     -9.29371742	      0.00000000	    -14.09100757	     -4.30882678	    -15.27784859	     20.70668790	      0.36139988	    -18.91538416	      2.29218125	      0.00000000
